# xmcd
#
# Track frame offsets:
#	150
#	12617
#	25037
#	48358
#	68566
#	94563
#	108570
#	121815
#	138709
#	157106
#	174268
#	203405
#
# Disc length: 2929 seconds
#
# Revision: 0
# Processed by: cddbd v1.5.1PL2 Copyright (c) Steve Scherf et al.
# Submitted via: audiograbber 1.83.01
#
DISCID=970b6f0c
DTITLE=Various Artist - Dit is Americana
DYEAR=2006
DGENRE=Rock
TTITLE0=Johnny Cash - I Walk The Line
TTITLE1=Sarah Harmer - I Am Aglow
TTITLE2=Jeffrey Foucault - Ghost Repeater
TTITLE3=Dar Williams - I'll Miss You 'Till I Meet You
TTITLE4=JP Den Tex - Black
TTITLE5=BR5-49 - After The Hurricane
TTITLE6=Shelby Lynne - Your Lies
TTITLE7=Endrick Brothers - Long May We Wander
TTITLE8=Alana Levandoski - Red Headed Girl
TTITLE9=Hyacinth House - On A Train
TTITLE10=Lucinda Williams - Bus To Baton Rouge
TTITLE11=Hayes Carll - Down The Road Tonight
EXTD=
EXTT0=
EXTT1=
EXTT2=
EXTT3=
EXTT4=
EXTT5=
EXTT6=
EXTT7=
EXTT8=
EXTT9=
EXTT10=
EXTT11=
PLAYORDER=
